# File created by Blade
# Date/Time:  Thu Jan 22 16:00:53 2015
#---------------------------------------------------------
:version 1.10
:name HOM
:units
  mass 1.0
  length 1.000000
  angle deg
:documentation
     Acclaim Skeleton File
:root
   axis xyz
   order TX TY TZ RX RY RZ
   position 0.000000 0.000000 0.000000
   orientation 0 0 0
:bonedata
   begin
      id 1
      name RightUpLeg_dum
      direction -1.000000 0.000000 0.000000
      length 3.766986
      axis 0.0 0.0 0.0 xyz
   end
   begin
      id 2
      name LeftUpLeg_dum
      direction 1.000000 0.000000 0.000000
      length 3.766986
      axis 0.0 0.0 0.0 xyz
   end
   begin
      id 3
      name Spine_dum
      direction 0.000000 1.000000 0.000000
      length 7.779697
      axis 0.0 0.0 0.0 xyz
   end
   begin
      id 4
      name RightUpLeg
      direction 0.000000 -1.000000 0.000000
      length 18.017682
      axis 0.0 0.0 0.0 xyz
      dof rx ry rz
   end
   begin
      id 5
      name RightLeg
      direction 0.000000 -1.000000 0.000000
      length 16.881075
      axis 0.0 0.0 0.0 xyz
      dof rx ry rz
   end
   begin
      id 6
      name RightFoot
      direction 0.000000 -0.258819 0.965926
      length 5.770812
      axis 15.0 0.0 0.0 xyz
      dof rx ry rz
   end
   begin
      id 7
      name RightToeBase
      direction 0.000000 0.000000 1.000000
      length 2.952750
      axis 0.0 0.0 0.0 xyz
      dof rx ry rz
   end
   begin
      id 8
      name LeftUpLeg
      direction 0.000000 -1.000000 0.000000
      length 18.017682
      axis 0.0 0.0 0.0 xyz
      dof rx ry rz
   end
   begin
      id 9
      name LeftLeg
      direction 0.000000 -1.000000 0.000000
      length 16.881075
      axis 0.0 0.0 0.0 xyz
      dof rx ry rz
   end
   begin
      id 10
      name LeftFoot
      direction 0.000000 -0.258819 0.965926
      length 5.770812
      axis 15.0 0.0 0.0 xyz
      dof rx ry rz
   end
   begin
      id 11
      name LeftToeBase
      direction 0.000000 0.000000 1.000000
      length 2.952750
      axis 0.0 0.0 0.0 xyz
      dof rx ry rz
   end
   begin
      id 12
      name Spine
      direction 0.000000 1.000000 0.000000
      length 0.000000
      axis 0.0 0.0 0.0 xyz
      dof rx ry rz
   end
   begin
      id 13
      name Spine_dum1
      direction 0.000000 1.000000 0.000000
      length 10.941760
      axis 0.0 0.0 0.0 xyz
   end
   begin
      id 14
      name Spine_dum2
      direction 0.000000 1.000000 0.000000
      length 10.941760
      axis 0.0 0.0 0.0 xyz
   end
   begin
      id 15
      name Spine_dum3
      direction 0.000000 1.000000 0.000000
      length 16.646042
      axis 0.0 0.0 0.0 xyz
   end
   begin
      id 16
      name RightShoulder
      direction -1.000000 0.000000 0.000000
      length 7.708937
      axis 0.0 0.0 90.0 xyz
      dof rx ry rz
   end
   begin
      id 17
      name RightArm
      direction -1.000000 0.000000 0.000000
      length 11.521345
      axis 0.0 0.0 90.0 xyz
      dof rx ry rz
   end
   begin
      id 18
      name RightForeArm
      direction -1.000000 0.000000 0.000000
      length 10.175898
      axis 0.0 0.0 90.0 xyz
      dof ry rz rx
   end
   begin
      id 19
      name RightHand
      direction -1.000000 0.000000 0.000000
      length 0.000000
      axis 0.0 0.0 90.0 xyz
      dof rx ry rz
   end
   begin
      id 20
      name RightHand_dum1
      direction -1.000000 0.000000 0.000000
      length 3.937000
      axis 0.0 0.0 90.0 xyz
   end
   begin
      id 21
      name RightHand_dum2
      direction 0.000000 0.000000 0.000000
      length 0.000000
      axis 0.0 0.0 90.0 xyz
   end
   begin
      id 22
      name RightHandThumb1
      direction 0.000000 0.000000 1.000000
      length 3.937000
      axis 0.0 0.0 90.0 xyz
      dof rx rz ry
   end
   begin
      id 23
      name LeftShoulder
      direction 1.000000 0.000000 0.000000
      length 7.708937
      axis 0.0 0.0 -90.0 xyz
      dof rx ry rz
   end
   begin
      id 24
      name LeftArm
      direction 1.000000 0.000000 0.000000
      length 11.521345
      axis 0.0 0.0 -90.0 xyz
      dof rx ry rz
   end
   begin
      id 25
      name LeftForeArm
      direction 1.000000 0.000000 0.000000
      length 10.175898
      axis 0.0 0.0 -90.0 xyz
      dof ry rz rx
   end
   begin
      id 26
      name LeftHand
      direction 1.000000 0.000000 0.000000
      length 0.000000
      axis 0.0 0.0 -90.0 xyz
      dof rx ry rz
   end
   begin
      id 27
      name LeftHand_dum1
      direction 1.000000 0.000000 0.000000
      length 3.937000
      axis 0.0 0.0 -90.0 xyz
   end
   begin
      id 28
      name LeftHand_dum2
      direction 0.000000 0.000000 0.000000
      length 0.000000
      axis 0.0 0.0 -90.0 xyz
   end
   begin
      id 29
      name LeftHandThumb1
      direction 0.000000 0.000000 1.000000
      length 3.937000
      axis 0.0 0.0 -90.0 xyz
      dof rx rz ry
   end
   begin
      id 30
      name Head
      direction 0.000000 1.000000 0.000000
      length 4.527550
      axis 0.0 0.0 0.0 xyz
      dof rx ry rz
   end
:hierarchy
   begin
      root RightUpLeg_dum LeftUpLeg_dum Spine_dum
      RightUpLeg_dum RightUpLeg
      LeftUpLeg_dum LeftUpLeg
      Spine_dum Spine
      RightUpLeg RightLeg
      RightLeg RightFoot
      RightFoot RightToeBase
      LeftUpLeg LeftLeg
      LeftLeg LeftFoot
      LeftFoot LeftToeBase
      Spine Spine_dum1 Spine_dum2 Spine_dum3
      Spine_dum1 RightShoulder
      Spine_dum2 LeftShoulder
      Spine_dum3 Head
      RightShoulder RightArm
      RightArm RightForeArm
      RightForeArm RightHand
      RightHand RightHand_dum1 RightHand_dum2
      RightHand_dum2 RightHandThumb1
      LeftShoulder LeftArm
      LeftArm LeftForeArm
      LeftForeArm LeftHand
      LeftHand LeftHand_dum1 LeftHand_dum2
      LeftHand_dum2 LeftHandThumb1
   end

# File created by Blade
# Date/Time:  Thu Jan 22 16:00:44 2015
# Frame Rate: 120.000 fps
#------------------------------------------------------
:FULLY-SPECIFIED
:DEGREES
242
root 3.516483 37.152598 -0.532771 27.393951 0.464036 0.252548
RightUpLeg -34.414062 -1.559404 -3.800186
RightLeg 4.369503 -0.000000 -0.000000
RightFoot -4.378515 -14.056057 17.542297
RightToeBase 12.697930 -0.000000 -0.000000
LeftUpLeg -38.485479 -1.349138 4.508785
LeftLeg 8.536782 -0.000000 -0.000000
LeftFoot -1.548118 13.873352 -16.197561
LeftToeBase 8.681247 -0.000000 -0.000000
Spine 62.932869 -4.738031 -14.714396
RightShoulder -23.752871 -53.788064 -13.117758
RightArm -7.332748 2.786186 88.479670
RightForeArm 5.862263 0.000000 5.191634
RightHand -13.098067 0.000000 38.664768
RightHandThumb1 -24.326973 -0.000000 -32.862282
LeftShoulder -81.297304 55.195355 -45.989991
LeftArm 17.218264 -4.960745 -86.707055
LeftForeArm 40.381056 -0.000000 -3.853896
LeftHand -17.272280 -0.000000 -49.680851
LeftHandThumb1 -26.253704 0.000000 33.147579
Head 33.184694 17.048176 2.796492
243
root 3.503001 37.157519 -0.595082 27.996903 0.278318 0.058932
RightUpLeg -34.919186 -1.401153 -3.647369
RightLeg 3.856150 -0.000000 -0.000000
RightFoot -3.827731 -14.126328 17.573989
RightToeBase 12.858954 -0.000000 -0.000000
LeftUpLeg -39.107576 -1.182537 4.736284
LeftLeg 8.460452 -0.000000 -0.000000
LeftFoot -1.527137 14.008936 -16.290266
LeftToeBase 8.865224 -0.000000 -0.000000
Spine 63.390173 -4.654784 -14.768793
RightShoulder -23.256274 -53.914324 -13.687717
RightArm -7.592691 2.902247 88.396241
RightForeArm 5.845851 -0.000000 5.145546
RightHand -13.051739 -0.000000 38.660048
RightHandThumb1 -24.326973 -0.000000 -32.862282
LeftShoulder -81.954452 55.351457 -46.598179
LeftArm 17.158753 -5.100322 -86.711421
LeftForeArm 40.519362 -0.000000 -3.880207
LeftHand -17.175167 -0.000000 -49.612727
LeftHandThumb1 -26.253704 0.000000 33.147579
Head 32.785282 17.230316 2.558053
244
root 3.485447 37.160394 -0.654905 28.562895 0.097962 -0.126804
RightUpLeg -35.362127 -1.183253 -3.529579
RightLeg 3.324241 -0.000000 -0.000000
RightFoot -3.328483 -14.242329 17.542535
RightToeBase 12.682926 -0.000000 -0.000000
LeftUpLeg -39.714311 -0.928879 4.904531
LeftLeg 8.439370 -0.000000 -0.000000
LeftFoot -1.464985 14.018959 -16.329805
LeftToeBase 8.866846 -0.000000 -0.000000
Spine 63.800885 -4.392291 -14.603065
RightShoulder -23.288837 -54.373416 -13.753238
RightArm -7.607202 3.020407 88.326637
RightForeArm 5.729306 -0.000000 5.057799
RightHand -13.051894 -0.000000 38.607332
RightHandThumb1 -24.326973 -0.000000 -32.862282
LeftShoulder -82.260030 55.790943 -46.777733
LeftArm 17.002188 -4.957601 -86.716485
LeftForeArm 40.337720 -0.000000 -3.859816
LeftHand -17.356400 -0.000000 -49.574882
LeftHandThumb1 -26.253704 0.000000 33.147579
Head 32.544956 17.157495 2.641857
245
root 3.470115 37.166051 -0.699734 29.057783 -0.085212 -0.307428
RightUpLeg -35.665321 -0.896377 -3.462814
RightLeg 2.700527 -0.000000 -0.000000
RightFoot -2.815717 -14.460330 17.526565
RightToeBase 12.764539 -0.000000 -0.000000
LeftUpLeg -40.192973 -0.677277 5.055470
LeftLeg 8.358224 -0.000000 -0.000000
LeftFoot -1.383177 14.026014 -16.347011
LeftToeBase 8.814896 -0.000000 -0.000000
Spine 64.278384 -4.081820 -14.486317
RightShoulder -23.217261 -54.780802 -13.778592
RightArm -7.684817 3.234408 88.232487
RightForeArm 5.676243 0.000000 4.982885
RightHand -13.065313 -0.000000 38.739904
RightHandThumb1 -24.326973 -0.000000 -32.862282
LeftShoulder -82.640734 56.190672 -46.986977
LeftArm 16.964825 -5.114278 -86.790083
LeftForeArm 40.614812 -0.000000 -3.998033
LeftHand -17.342986 -0.000000 -49.437372
LeftHandThumb1 -26.253704 0.000000 33.147579
Head 32.355688 17.050253 2.864827
246
root 3.455063 37.167614 -0.740177 29.520867 -0.235119 -0.421654
RightUpLeg -35.905677 -0.684376 -3.428500
RightLeg 2.063542 -0.000000 -0.000000
RightFoot -2.389990 -14.686433 17.460557
RightToeBase 12.814852 -0.000000 -0.000000
LeftUpLeg -40.625039 -0.487065 5.158335
LeftLeg 8.239072 -0.000000 -0.000000
LeftFoot -1.337101 14.063421 -16.454286
LeftToeBase 8.919965 -0.000000 -0.000000
Spine 64.817425 -3.876107 -14.516652
RightShoulder -23.087578 -55.131884 -13.861383
RightArm -7.732548 3.316866 88.091422
RightForeArm 5.733579 -0.000000 4.857395
RightHand -13.074159 -0.000000 38.719660
RightHandThumb1 -24.326973 -0.000000 -32.862282
LeftShoulder -83.144108 56.434885 -47.319177
LeftArm 16.902125 -5.009778 -86.708236
LeftForeArm 40.289604 0.000000 -4.106871
LeftHand -17.525027 -0.000000 -49.239253
LeftHandThumb1 -26.253704 0.000000 33.147579
Head 32.104444 17.108580 3.001351
247
root 3.438561 37.169379 -0.770404 29.919386 -0.386763 -0.495641
RightUpLeg -36.049846 -0.566925 -3.375168
RightLeg 1.405062 -0.000000 -0.000000
RightFoot -1.979174 -14.813171 17.358021
RightToeBase 12.771215 -0.000000 -0.000000
LeftUpLeg -40.969837 -0.252185 5.169459
LeftLeg 8.100537 -0.000000 -0.000000
LeftFoot -1.220047 14.014384 -16.433358
LeftToeBase 8.889958 -0.000000 -0.000000
Spine 65.365846 -3.569635 -14.465204
RightShoulder -23.063715 -55.450822 -13.794971
RightArm -7.934660 3.473766 87.964471
RightForeArm 5.686470 -0.000000 4.800895
RightHand -13.063651 -0.000000 38.887380
RightHandThumb1 -24.326973 -0.000000 -32.862282
LeftShoulder -83.406788 56.827216 -47.368149
LeftArm 16.753715 -5.008035 -86.659870
LeftForeArm 40.427911 0.000000 -4.124342
LeftHand -17.498916 -0.000000 -49.327482
LeftHandThumb1 -26.253704 0.000000 33.147579
Head 31.916301 16.979488 3.362255
248
root 3.427829 37.166323 -0.805366 30.362154 -0.452212 -0.489609
RightUpLeg -36.245601 -0.660909 -3.300513
RightLeg 0.760087 -0.000000 -0.000000
RightFoot -1.568596 -14.820428 17.227054
RightToeBase 12.902476 -0.000000 -0.000000
LeftUpLeg -41.408062 -0.166531 5.164007
LeftLeg 7.998805 -0.000000 -0.000000
LeftFoot -1.126854 14.052103 -16.454072
LeftToeBase 8.971204 -0.000000 -0.000000
Spine 65.899511 -3.435245 -14.455603
RightShoulder -23.146006 -55.791951 -13.678079
RightArm -8.049519 3.767059 87.777736
RightForeArm 5.598247 0.000000 4.739703
RightHand -13.251154 0.000000 38.765539
RightHandThumb1 -24.326973 -0.000000 -32.862282
LeftShoulder -83.612332 57.095460 -47.390543
LeftArm 16.548883 -5.044479 -86.496503
LeftForeArm 40.429626 -0.000000 -4.159192
LeftHand -17.571763 -0.000000 -49.429726
LeftHandThumb1 -26.253704 0.000000 33.147579
Head 31.640893 16.884625 3.541807
249
root 3.412287 37.164308 -0.821730 30.678797 -0.540375 -0.455874
RightUpLeg -36.292332 -0.766778 -3.220054
RightLeg 0.123724 -0.000000 -0.000000
RightFoot -1.203390 -14.803878 17.047095
RightToeBase 12.908484 -0.000000 -0.000000
LeftUpLeg -41.645885 -0.053216 5.111213
LeftLeg 7.805049 -0.000000 -0.000000
LeftFoot -1.000384 14.045244 -16.481770
LeftToeBase 8.938759 -0.000000 -0.000000
Spine 66.549879 -3.212081 -14.499864
RightShoulder -23.285040 -56.129745 -13.452464
RightArm -8.161280 3.708522 87.614281
RightForeArm 5.674533 -0.000000 4.697110
RightHand -13.274659 -0.000000 38.891716
RightHandThumb1 -24.326973 -0.000000 -32.862282
LeftShoulder -83.766036 57.370341 -47.347350
LeftArm 16.305625 -5.103938 -86.327150
LeftForeArm 40.471540 -0.000000 -4.118073
LeftHand -17.669807 0.000000 -49.507047
LeftHandThumb1 -26.253704 0.000000 33.147579
Head 31.384312 16.766048 3.711870
250
root 3.405613 37.159157 -0.852817 31.107574 -0.488097 -0.377136
RightUpLeg -36.471588 -1.020849 -3.125634
RightLeg -0.470699 -0.000000 0.000000
RightFoot -0.878417 -14.756556 16.883133
RightToeBase 12.915429 -0.000000 -0.000000
LeftUpLeg -42.060746 -0.111387 5.096695
LeftLeg 7.645470 -0.000000 -0.000000
LeftFoot -0.879462 14.089443 -16.532339
LeftToeBase 9.012753 -0.000000 -0.000000
Spine 67.076033 -3.223727 -14.456485
RightShoulder -23.390336 -56.395215 -13.341581
RightArm -8.425361 3.854801 87.423953
RightForeArm 5.450010 -0.000000 4.715796
RightHand -13.168470 -0.000000 38.832323
RightHandThumb1 -24.326973 -0.000000 -32.862282
LeftShoulder -83.967940 57.629679 -47.367947
LeftArm 16.078383 -5.038555 -86.096248
LeftForeArm 40.217403 -0.000000 -4.141993
LeftHand -17.668714 -0.000000 -49.539221
LeftHandThumb1 -26.253704 0.000000 33.147579
Head 31.163365 16.677618 3.894531
251
root 3.403716 37.154518 -0.880100 31.493008 -0.411589 -0.287977
RightUpLeg -36.636428 -1.363409 -2.991554
RightLeg -0.997861 -0.000000 0.000000
RightFoot -0.544923 -14.617895 16.725218
RightToeBase 12.946652 -0.000000 -0.000000
LeftUpLeg -42.427487 -0.160094 5.041165
LeftLeg 7.475984 -0.000000 -0.000000
LeftFoot -0.699013 14.110477 -16.477681
LeftToeBase 9.012038 -0.000000 -0.000000
Spine 67.628273 -3.294376 -14.378477
RightShoulder -23.467472 -56.721513 -13.325799
RightArm -8.657337 3.884966 87.303620
RightForeArm 5.461503 0.000000 4.738215
RightHand -13.109425 -0.000000 38.766913
RightHandThumb1 -24.326973 -0.000000 -32.862282
LeftShoulder -84.160522 57.928759 -47.474856
LeftArm 15.850133 -5.172901 -85.932851
LeftForeArm 40.151661 0.000000 -4.128764
LeftHand -17.848053 -0.000000 -49.475757
LeftHandThumb1 -26.253704 0.000000 33.147579
Head 30.963297 16.671963 4.088496
252
root 3.404851 37.149950 -0.909509 31.935397 -0.303664 -0.164609
RightUpLeg -36.876189 -1.745940 -2.885586
RightLeg -1.486157 -0.000000 0.000000
RightFoot -0.248048 -14.454036 16.641482
RightToeBase 13.061924 -0.000000 -0.000000
LeftUpLeg -42.821059 -0.268665 4.985509
LeftLeg 7.217885 -0.000000 -0.000000
LeftFoot -0.493093 14.176843 -16.464247
LeftToeBase 9.044844 -0.000000 -0.000000
Spine 68.124680 -3.433884 -14.313208
RightShoulder -23.664021 -57.061085 -13.198358
RightArm -8.797833 3.874342 87.164307
RightForeArm 5.473611 -0.000000 4.696860
RightHand -13.085190 0.000000 38.641862
RightHandThumb1 -24.326973 -0.000000 -32.862282
LeftShoulder -84.446377 58.165005 -47.711536
LeftArm 15.685980 -5.350140 -85.716859
LeftForeArm 40.420735 0.000000 -4.077850
LeftHand -17.840963 -0.000000 -49.561600
LeftHandThumb1 -26.253704 0.000000 33.147579
Head 30.761125 16.648493 4.186179
